<svg width="42" height="42" viewBox="0 0 42 42" fill="none" xmlns="http://www.w3.org/2000/svg">
  <g clip-path="url(#clip0_620_24)">
    <rect x="5.16284" y="7.02255" width="30.9501" height="27.9549" fill="white"/>
    <path d="M27.6963 16.2871C27.8245 16.249 27.9532 16.3451 27.9532 16.4788L27.9532 22.8135C27.9532 22.9021 27.8949 22.9801 27.8099 23.0053L21.2687 24.9381C21.0834 24.9929 20.8861 24.9928 20.7008 24.9378L14.1899 23.0054C14.105 22.9802 14.0468 22.9022 14.0468 22.8136V16.4788C14.0468 16.3451 14.1755 16.249 14.3037 16.2871L19.7946 17.9168C20.58 18.1499 21.42 18.1499 22.2054 17.9168L27.6963 16.2871Z" fill="#2266F7"/>
    <path fill-rule="evenodd" clip-rule="evenodd" d="M23.5833 0.345211C21.8908 -0.11507 20.1092 -0.11507 18.4167 0.345211L5.19168 3.94185C2.12971 4.77458 0 7.59583 0 10.8193V31.1807C0 34.4042 2.12972 37.2254 5.19169 38.0581L18.4167 41.6548C20.1092 42.1151 21.8908 42.1151 23.5833 41.6548L36.8083 38.0581C39.8703 37.2254 42 34.4042 42 31.1807V10.8193C42 7.59583 39.8703 4.77458 36.8083 3.94185L23.5833 0.345211ZM14.3037 27.1232C14.1755 27.0852 14.0468 27.1812 14.0468 27.3149V31.6921C14.0468 32.119 13.6423 32.43 13.2298 32.3203L10.483 31.5901C10.1982 31.5144 10 31.2566 10 30.962V14.4491C10 12.6983 11.7564 11.447 13.4913 11.9619L20.7008 14.1016C20.8861 14.1566 21.0834 14.1568 21.2688 14.102L28.5087 11.9619C30.2436 11.447 32 12.6983 32 14.4491L32 23.9239C32 25.0663 31.2275 26.0752 30.0955 26.4111L22.2054 28.7529C21.42 28.986 20.58 28.986 19.7946 28.7529L14.3037 27.1232Z" fill="#2266F7"/>
  </g>
  <defs>
    <clipPath id="clip0_620_24">
      <rect width="42" height="42" fill="white"/>
    </clipPath>
  </defs>
</svg>
